<svg width="300" height="300" xmlns="http://www.w3.org/2000/svg" xmlns:svg="http://www.w3.org/2000/svg" data-name="Capa 1">
 <defs>
  <style>.cls-1{fill:#fff;}</style>
 </defs>
 <g class="layer">
  <title>Layer 1</title>
  <g id="svg_1">
   <path class="cls-1" d="m167.18,289.22c-1.35,-0.26 -2.72,-0.47 -4.06,-0.77c-6.73,-1.5 -10.53,-5.93 -12.61,-12.41c3.57,0 7.01,0 10.53,0a1.5,1.5 0 0 1 0.96,0.62a7.95,7.95 0 0 0 13.84,-1.5a16.24,16.24 0 0 0 1.23,-7.66c-0.77,0.83 -1.32,1.5 -1.99,2.17c-4.26,4 -11.59,4.33 -17,0.71a17.47,17.47 0 0 1 -7.37,-10.23a30.8,30.8 0 0 1 0.59,-18.39a14.79,14.79 0 0 1 14.07,-10.61a33.57,33.57 0 0 1 8.77,0.44a15.62,15.62 0 0 1 13.03,15.15c0.3,8.61 0.41,17.28 0,25.88a17.08,17.08 0 0 1 -15.05,16.43c-0.11,0 -0.21,0.12 -0.3,0.18l-4.65,0l0.01,-0.01zm9.87,-36.43a16.46,16.46 0 0 0 -2.66,-10.02c-3.01,-4.27 -10.53,-3.72 -12.69,1.04a21.07,21.07 0 0 0 -0.8,15.39a6.34,6.34 0 0 0 5.25,4.71c3.13,0.51 6.02,0.2 8.28,-2.44s2.38,-6 2.62,-8.68z" fill="#000000" id="svg_2"/>
   <path class="cls-1" d="m296.13,198.47c-0.29,1.69 -0.45,3.39 -0.84,5.04c-2.38,9.95 -9.54,15.26 -20.01,15.05c-5.3,-0.14 -10.2,-1.28 -13.99,-5.3a20.98,20.98 0 0 1 -5.39,-10.92a25.45,25.45 0 0 1 1.05,-13.54c2.9,-7.7 8.43,-12.04 16.7,-12.44a22.75,22.75 0 0 1 12.29,2.12c5.33,2.81 8.02,7.6 9.41,13.24c0.39,1.5 0.53,3.21 0.78,4.82l0,1.94l0,-0.01zm-10.73,-1.01l-0.36,-0.09a16.67,16.67 0 0 0 -1.31,-7.27a8.14,8.14 0 0 0 -7.9,-5.06a7.99,7.99 0 0 0 -8.11,4.92a18.27,18.27 0 0 0 0,14.84a8.02,8.02 0 0 0 8.23,4.92a7.81,7.81 0 0 0 7.75,-5.22a55.17,55.17 0 0 0 1.7,-7.04z" fill="#000000" id="svg_3"/>
   <path class="cls-1" d="m148.82,146.4a131.14,131.14 0 0 1 -45.29,-7.83a81.11,81.11 0 0 1 -28.8,-17.68c-10.25,-10.05 -16.33,-22.05 -17.06,-36.61c-0.5,-10.17 1.28,-19.67 6.79,-28.35a62.57,62.57 0 0 1 13.65,-15.05a99.45,99.45 0 0 1 37.62,-18.27a135.95,135.95 0 0 1 47.46,-3.76a117.99,117.99 0 0 1 46.21,13.41c10.08,5.46 18.93,12.43 25.48,21.99a44.9,44.9 0 0 1 7.99,24.44c0.71,21.99 -9.33,38.15 -26.89,50.25c-10.68,7.37 -22.66,11.74 -35.29,14.45a149.92,149.92 0 0 1 -31.86,3.02l-0.01,-0.01zm-87.28,-71.31a13.06,13.06 0 0 0 -0.18,1.32a37.3,37.3 0 0 0 2.05,14.66a50.37,50.37 0 0 0 15.48,21.61a91.03,91.03 0 0 0 34.2,17.77a133.27,133.27 0 0 0 54.26,4.11a113.94,113.94 0 0 0 38.63,-11.5a70.26,70.26 0 0 0 24.08,-19.22a41.16,41.16 0 0 0 9.15,-24.41c0,-1.1 0,-2.21 0,-3.33c-5.28,0.27 -34.14,9.38 -36.82,11.53c1.64,3.36 1.64,6.64 -0.87,9.54a10.26,10.26 0 0 1 -9.44,3.36a8.8,8.8 0 0 1 -3.96,7.28a10.91,10.91 0 0 1 -8.17,2.02a9.95,9.95 0 0 1 -11.35,6.82a1.5,1.5 0 0 0 -1.16,0.35a7.61,7.61 0 0 1 -4.21,2.62c-3.94,1.14 -7.52,0.11 -11.09,-1.6a1.64,1.64 0 0 0 -2.08,0.2a10.53,10.53 0 0 1 -12.16,0.92a11.2,11.2 0 0 1 -4.35,-4.89a1.5,1.5 0 0 0 -0.32,0a10.11,10.11 0 0 1 -11.3,-4.95a1.38,1.38 0 0 0 -1.08,-0.48a9.92,9.92 0 0 1 -7.31,-2.15a10.53,10.53 0 0 1 -3.9,-6.02c-7.9,0.18 -11.69,-4.51 -10.07,-12.43c-4.82,-4.23 -23.79,-10.71 -38.1,-13.12l0.06,0l0.01,-0.01zm65.85,-25.88l-0.12,-0.23c-1.61,0.42 -3.25,0.77 -4.85,1.29a30.49,30.49 0 0 1 -16.43,0.63a166.49,166.49 0 0 1 -23.99,-7.33a2.03,2.03 0 0 0 -1.69,0a51.72,51.72 0 0 0 -16.37,21.25c-0.78,2.02 -1.34,4.11 -2.05,6.29c13.86,3.61 27.72,6.31 39.91,13.89a9.13,9.13 0 0 1 6.82,-2.47a9.27,9.27 0 0 1 6.46,3.27a10.43,10.43 0 0 1 8.17,-1.5a9.44,9.44 0 0 1 6.73,4.77a10.53,10.53 0 0 1 9.5,1.5c3.01,2.12 3.63,5.37 3.67,8.77a10.91,10.91 0 0 1 9.93,15.41c1.5,0.54 3.01,1.16 4.62,1.6a8.04,8.04 0 0 0 5.9,-0.57c1.23,-0.62 1.28,-1.05 0.38,-2.06c-2.21,-2.44 -4.44,-4.85 -6.62,-7.3c-0.51,-0.57 -1.08,-1.35 -0.33,-1.96c0.36,-0.29 1.26,0 1.9,0.2a1.79,1.79 0 0 1 0.69,0.54c2.35,2.18 4.71,4.33 7.01,6.55a5.43,5.43 0 0 0 6.88,1.02c2.23,-1.25 3.78,-3.46 1.16,-6.26s-5.34,-6.02 -8.01,-9.03c-0.21,-0.26 -0.51,-0.53 -0.56,-0.81s-0.12,-0.99 0.12,-1.23a1.29,1.29 0 0 1 1.22,-0.18a6.89,6.89 0 0 1 1.75,1.22c2.72,2.57 5.54,5.07 8.1,7.78a6.21,6.21 0 0 0 8.65,0.77c3.16,-2.17 3.45,-5.24 0.72,-7.96q-5.52,-5.55 -11.05,-11.12a3.72,3.72 0 0 1 -0.9,-1.17a1.38,1.38 0 0 1 0.14,-1.23a1.32,1.32 0 0 1 1.23,-0.2a6.71,6.71 0 0 1 1.64,1.14c4.08,3.64 8.13,7.34 12.26,10.92a7.52,7.52 0 0 0 3.01,1.5a6.35,6.35 0 0 0 6.46,-3.01a5.06,5.06 0 0 0 -1.5,-6.02c-9.63,-8.31 -19.23,-16.64 -28.94,-24.87a103.58,103.58 0 0 0 -9.34,-7.07a9.25,9.25 0 0 0 -9.98,-0.41a75.24,75.24 0 0 0 -6.92,4.36c-2.78,1.91 -5.31,4.18 -8.22,5.87c-4.97,2.89 -10.14,2.39 -15.05,-0.29c-3.01,-1.64 -3.27,-4.38 -0.93,-6.91l4.82,-5.19l4.02,-4.17l-0.02,0.01zm111.16,22.71c-0.08,-0.44 -0.14,-0.8 -0.23,-1.17c-2.42,-10.62 -8.56,-18.87 -16.63,-25.87a1.61,1.61 0 0 0 -1.32,-0.15c-1.19,0.41 -2.33,0.96 -3.51,1.43c-14.81,5.87 -29.52,6.02 -44.09,-0.78a45.01,45.01 0 0 0 -16.46,-4.51a29.89,29.89 0 0 0 -20.27,5.54c-5.64,4.21 -10.04,9.69 -14.85,14.75c-0.63,0.66 -0.5,1.19 0.26,1.61a9.42,9.42 0 0 0 1.81,0.86a11.81,11.81 0 0 0 9.86,-1.07c1.88,-1.19 3.63,-2.59 5.45,-3.88a103.06,103.06 0 0 1 8.64,-6.11a13.11,13.11 0 0 1 14.88,0.53c1.35,0.93 2.74,1.82 3.99,2.87q16.42,13.95 32.77,27.96a1.61,1.61 0 0 0 1.99,0.3a193.64,193.64 0 0 1 25.06,-8.91c4.15,-1.13 8.35,-2.24 12.67,-3.39l-0.02,-0.01zm-20.72,-30.1a7.24,7.24 0 0 0 -0.92,-0.74c-3.61,-2.23 -7.12,-4.66 -10.88,-6.61c-17.03,-8.79 -35.32,-12.34 -54.32,-12.66a130,130 0 0 0 -26.12,2.23a108.71,108.71 0 0 0 -35.81,12.99c-1.85,1.1 -3.63,2.3 -5.58,3.55c0.5,0.21 0.72,0.33 0.96,0.41c6.83,2.03 13.66,4.12 20.54,6.02a24.08,24.08 0 0 0 12.96,0.47a62.95,62.95 0 0 1 13.26,-2.71a1.99,1.99 0 0 0 0.96,-0.53a32.74,32.74 0 0 1 19.37,-7.01a43.94,43.94 0 0 1 21.38,4.51c14.7,7.06 29.36,6.59 44.21,0.08l-0.01,0zm-105.16,53.26a10.02,10.02 0 0 1 0.2,1.79a7.52,7.52 0 0 0 3.1,7.28a5.88,5.88 0 0 0 7.28,0c0.89,-0.62 1.34,-0.2 1.28,1.07a5.15,5.15 0 0 0 3.19,5.01a5.21,5.21 0 0 0 5.93,0c2.2,-1.63 2.2,-1.61 2.65,1.07a7.12,7.12 0 0 0 5.75,5.81a7.24,7.24 0 0 0 7.67,-3.66a7.21,7.21 0 0 0 -9.03,-10.08a5.48,5.48 0 0 1 -1.66,0a15.32,15.32 0 0 1 0.11,-1.67a25.9,25.9 0 0 0 0.59,-3.34a5.52,5.52 0 0 0 -3.13,-5.7a6.17,6.17 0 0 0 -7.1,0.54c-1.29,1.05 -1.5,0.98 -1.87,-0.65a5.55,5.55 0 0 0 -4.21,-4.83a7.22,7.22 0 0 0 -6.88,1.5a35.29,35.29 0 0 0 -2.71,2.86c-0.32,-3.49 -1.91,-5.93 -5.7,-6.14a5.51,5.51 0 0 0 -5.37,3.85a5.6,5.6 0 0 0 2.06,6.28c2.18,1.63 4.65,1.4 7.86,-0.99l-0.01,0z" fill="#000000" id="svg_4"/>
   <path class="cls-1" d="m13.51,217.59l-9.51,0c0,-0.45 0,-0.86 0,-1.25c0,-7.67 0,-15.33 0,-23.01c0,-8.23 5.06,-14.88 12.61,-16.48c6.14,-1.29 11.63,0 16.04,5c0.44,-0.48 0.83,-0.96 1.28,-1.37c4.88,-4.36 10.53,-5.04 16.55,-3.13c5.75,1.84 8.88,6.12 10.08,11.89a25.58,25.58 0 0 1 0.47,5.03c0,7.24 0,14.49 0,21.73l0,1.5l-9.69,0l0,-23.48a12.7,12.7 0 0 0 0,-1.5c-0.57,-4.29 -3.15,-6.56 -7.18,-6.35a6.89,6.89 0 0 0 -6.89,7.21c0,7.52 0,15.05 0,22.5l0,1.61l-9.69,0l0,-23.63a11.65,11.65 0 0 0 -0.09,-1.63c-0.62,-4.15 -3.19,-6.32 -7.15,-6.02a6.92,6.92 0 0 0 -6.83,7.15c0,7.52 0,15.05 0,22.57l0,1.66z" fill="#000000" id="svg_5"/>
   <path class="cls-1" d="m79.83,267.69l0,1.38c0,3.66 0,7.33 0,10.99a5.19,5.19 0 0 1 -5.64,5.67l-4.85,0l0,-36.91c0,-9.8 6.17,-16.64 15.94,-17.46a34.08,34.08 0 0 1 8.4,0.27c6.8,1.17 11.08,5.46 13.05,11.93a28.38,28.38 0 0 1 -0.74,19.05c-2.14,5.34 -5.78,9.25 -11.72,10.19c-5.51,0.89 -10.53,0 -14.04,-4.97c-0.05,-0.06 -0.14,-0.06 -0.39,-0.15l-0.01,0.01zm-0.23,-15.65l0.17,0c0.11,1.22 0.15,2.44 0.32,3.64a15.3,15.3 0 0 0 0.66,2.69a7.98,7.98 0 0 0 7.52,5.64a7.52,7.52 0 0 0 7.86,-5.15a18.34,18.34 0 0 0 -0.18,-14.02a7.52,7.52 0 0 0 -7.87,-4.77a7.52,7.52 0 0 0 -7.33,5.64a57.92,57.92 0 0 0 -1.14,6.32l-0.01,0.01z" fill="#000000" id="svg_6"/>
   <path class="cls-1" d="m241.76,181.81c0,-3.24 0,-6.47 0,-9.72c0,-5.69 4.89,-9.36 10.62,-7.9l0,1.5l0,35.77a16.01,16.01 0 0 1 -12.99,16.36a27.21,27.21 0 0 1 -13.98,-0.54a14.15,14.15 0 0 1 -9.78,-8.94a27.9,27.9 0 0 1 1.6,-24.08a15.26,15.26 0 0 1 17.38,-7.18a14.39,14.39 0 0 1 7.15,4.73zm0.35,16.28a17.32,17.32 0 0 0 -1.7,-8.05a7.84,7.84 0 0 0 -7.39,-4.39a7.31,7.31 0 0 0 -7.21,4.95a19.14,19.14 0 0 0 0,14.51a7.03,7.03 0 0 0 6.44,4.73a7.78,7.78 0 0 0 7.9,-3.87a15.45,15.45 0 0 0 2,-7.87l-0.05,0l0.01,-0.01z" fill="#000000" id="svg_7"/>
   <path class="cls-1" d="m104.51,200.36l-28.77,0a8.53,8.53 0 0 0 7.78,9.42a18.25,18.25 0 0 0 4.88,-0.27a5.48,5.48 0 0 0 3.01,-1.5a3.75,3.75 0 0 1 3.33,-1.23c2.89,0 5.79,0 9.03,0a21.19,21.19 0 0 1 -1.05,2.5a16.84,16.84 0 0 1 -9.65,8.08a23.29,23.29 0 0 1 -18.15,-1.2a16.18,16.18 0 0 1 -9.03,-11.72a29.19,29.19 0 0 1 0.66,-15.47c2.48,-7.31 7.81,-11.23 15.36,-12.25a22.99,22.99 0 0 1 10.11,0.86c7.06,2.27 10.83,7.43 12.04,14.51a80.82,80.82 0 0 1 0.45,8.29l0,-0.02zm-28.59,-7.01l17.56,0c-0.53,-5.33 -4.05,-8.41 -9.19,-8.25a8.38,8.38 0 0 0 -8.34,8.25l-0.03,0z" fill="#000000" id="svg_8"/>
   <path class="cls-1" d="m211.47,273.42c-2.44,-0.42 -4.92,-0.65 -7.3,-1.28a15.44,15.44 0 0 1 -9.95,-8.2a24.29,24.29 0 0 1 0.9,-25.22a15.83,15.83 0 0 1 10.53,-7.27a27.09,27.09 0 0 1 11.78,0a15.95,15.95 0 0 1 10.73,7.52a24.24,24.24 0 0 1 0.56,25.22c-3.01,5.6 -7.99,8.22 -14.16,8.82c-1.01,0.11 -2.02,0.12 -3.01,0.17l-0.09,0.24l0.01,0zm9.69,-20.86c-0.38,-2.41 -0.51,-4.26 -0.96,-6.02a8.47,8.47 0 0 0 -7.64,-6.82c-4.27,-0.36 -7.52,1.34 -9.12,5.09a18.43,18.43 0 0 0 0.08,14.63a8.07,8.07 0 0 0 8.07,5a7.84,7.84 0 0 0 7.89,-5.04a49.84,49.84 0 0 0 1.7,-6.83l-0.02,-0.01z" fill="#000000" id="svg_9"/>
   <path class="cls-1" d="m111.94,245.03c0.2,-6.65 3.61,-11.02 8.92,-12.6a27.09,27.09 0 0 1 19.13,1.05a8.4,8.4 0 0 1 5.57,7.52a193.87,193.87 0 0 1 0,20.06c-0.36,5.51 -4.03,8.91 -9.12,10.68a32.2,32.2 0 0 1 -16.33,1.16c-6.79,-1.2 -10.31,-6.38 -9.38,-13.27c0.75,-5.73 3.94,-9.16 10.14,-10.53c3.25,-0.72 6.56,-1.04 9.84,-1.58a12.32,12.32 0 0 0 2.56,-0.68a3.01,3.01 0 0 0 2.18,-3.18a3.25,3.25 0 0 0 -2.36,-3.36a12.44,12.44 0 0 0 -7.22,-0.26a4.91,4.91 0 0 0 -3.6,4c-0.18,0.8 -0.48,1.1 -1.32,1.08c-2.65,0 -5.31,0 -7.96,0c-0.41,-0.05 -0.65,-0.09 -1.05,-0.12l0,0.03zm23.63,8.07l-6.02,1.5a47.33,47.33 0 0 0 -5.81,1.61a4.51,4.51 0 0 0 -2.65,4.74a4.38,4.38 0 0 0 2.65,4.21c3.01,1.43 10.14,-0.3 11.12,-5.09a65.37,65.37 0 0 0 0.71,-6.98l0,0.01z" fill="#000000" id="svg_10"/>
   <path class="cls-1" d="m186.73,190.21l-9.92,0a14.33,14.33 0 0 1 2.36,-7.84a12.04,12.04 0 0 1 7.52,-5.07a28.67,28.67 0 0 1 16.9,0.77c4.24,1.5 6.85,4.41 7,8.91c0.21,6.11 0.27,12.22 0,18.31s-4.18,10.02 -9.98,11.8a33.11,33.11 0 0 1 -15.98,0.83a10.53,10.53 0 0 1 -9.03,-10.53c-0.29,-7.4 3.42,-11.87 11.27,-13.38c2.92,-0.56 5.9,-0.84 8.85,-1.31a11.42,11.42 0 0 0 2.54,-0.72a3.01,3.01 0 0 0 2.15,-3.01a3.39,3.39 0 0 0 -2.27,-3.45a12.04,12.04 0 0 0 -7.69,-0.21a4.42,4.42 0 0 0 -2.84,2.68c-0.41,0.69 -0.62,1.41 -0.89,2.23l0.01,-0.01zm13.54,8.04c-2.26,0.56 -4.29,1.04 -6.31,1.5a45.72,45.72 0 0 0 -5.21,1.41a4.77,4.77 0 0 0 -2.87,5.46a4.27,4.27 0 0 0 4.17,4a11.53,11.53 0 0 0 2.87,-0.09a7.66,7.66 0 0 0 6.97,-6.44c0.38,-1.93 0.35,-3.96 0.45,-5.85l-0.08,0l0.01,0.01z" fill="#000000" id="svg_11"/>
   <path class="cls-1" d="m172.21,191.71l-10.99,0c-0.09,-0.29 -0.21,-0.59 -0.3,-0.9a6.88,6.88 0 0 0 -8.38,-5.39a7.36,7.36 0 0 0 -6.28,5.34a21.99,21.99 0 0 0 -0.14,13.42c1.84,6.02 7.36,6.24 10.97,4.95c2.45,-0.87 3.28,-3.1 3.76,-5.43c0.12,-0.59 0.21,-1.01 0.98,-0.99c3.28,0 6.58,0 9.86,0a3.46,3.46 0 0 1 0.6,0.12c-1.05,6.47 -4.23,11.42 -10.29,13.98a23.32,23.32 0 0 1 -18.06,-0.11a15.14,15.14 0 0 1 -8.77,-10.02a27.66,27.66 0 0 1 0.44,-18.93a16.46,16.46 0 0 1 12.4,-10.62a25.67,25.67 0 0 1 15.95,1.34a14.01,14.01 0 0 1 8.25,13.24z" fill="#000000" id="svg_12"/>
   <path class="cls-1" d="m119.65,217.59l-10.41,0c0,-0.48 -0.08,-0.93 -0.08,-1.37c0,-6.7 0,-13.39 0,-20.09c0,-10.91 7.3,-18.63 18.19,-19.41c1.58,-0.12 3.16,-0.17 4.83,-0.24l0,10.53c-1.87,0.09 -3.67,0 -5.45,0.27a7.33,7.33 0 0 0 -6.79,6.83a30.86,30.86 0 0 0 -0.29,3.9c0,6.02 0,12.04 0,18.06l-0.02,1.52l0.02,0z" fill="#000000" id="svg_13"/>
  </g>
 </g>
</svg>