<svg width="300" height="300" xmlns="http://www.w3.org/2000/svg" xmlns:svg="http://www.w3.org/2000/svg" data-name="Capa 1">
 <defs>
  <style>.cls-1 {
        fill-rule: evenodd;
      }

      .cls-1, .cls-2 {
        fill: #fff;
      }

      .cls-2 {
        stroke-linecap: round;
        stroke-linejoin: round;
        stroke-width: 11.57px;
      }

      .cls-2, .cls-3 {
        stroke: #fff;
      }

      .cls-3 {
        fill: none;
        stroke-miterlimit: 10;
        stroke-width: 4px;
      }

      .cls-4 {
        fill: rgb(100, 100, 100);
      }</style>
 </defs>
 <g class="layer">
  <title>Layer 1</title>
  <g id="svg_5">
   <path class="cls-1" d="m66.26,97.38l129.37,-33.84l22.7,83.95l49.7,-12.84l-47.67,62.51l-0.49,0.13s-4.34,1.18 -5.71,0.4c-1.39,-0.78 1.58,-6.32 3.16,-10.05c1.58,-3.75 4.53,-12.83 7.1,-17.95c2.57,-5.12 6.32,-9.27 7.29,-9.67c0.99,-0.4 1.58,-3.94 1.18,-5.52c-0.4,-1.58 0,-3.35 -1.58,-3.35s-2.76,4.74 -4.93,7.5c-2.17,2.76 -7.1,12.11 -11.25,20.66c-4.15,8.55 -12.27,18.38 -16.32,22.4c-4.34,3.43 -0.85,-3.21 -0.45,-5.19c0.4,-1.98 2.95,-7.5 2.95,-7.5c0,0 3.56,-3.94 -0.99,-2.57c-4.53,1.39 -8.68,8.09 -8.68,8.09c0,0 -11.25,14.01 -15.19,16.77c-3.94,2.76 -2.95,-1.58 -2.17,-5.92c0.78,-4.34 5.71,-9.46 5.71,-9.46l1.98,-0.78s-1.18,4.34 -0.19,4.15c0.99,-0.19 2.17,-1.98 2.36,-3.56c0.19,-1.58 0,-8.09 -1.18,-7.29c-1.18,0.78 -7.5,6.51 -9.46,8.87c-1.98,2.36 -9.08,11.25 -11.63,15.38c-2.57,4.15 -0.78,-2.17 -0.78,-2.17c0,0 0.99,-3.56 1.18,-5.12c0.19,-1.58 -1.98,-0.78 -1.98,-0.78l-2.95,2.95s-0.59,0.59 -0.59,2.95s-2.95,5.71 -5.92,7.5c-2.95,1.77 -1.77,-1.58 -1.77,-1.58c0,0 0.99,-4.15 3.94,-9.08c2.95,-4.93 6.11,-5.33 7.88,-6.11c1.77,-0.78 0.99,-1.98 0.4,-2.95c-0.59,-0.99 -2.54,-0.27 -3.16,0.19c-1.36,1.07 -23.31,19.42 -24.27,22.69c-0.96,3.27 2.17,0.78 2.17,0.78l8.68,-9.43l0.4,-0.43l-0.19,2.17s-2.57,4.53 -1.98,7.69c0.65,2.55 2.57,1.99 3.94,1.9c1.39,-0.19 4.13,-4.07 5.92,-5.46c1.77,-1.39 1.98,0.19 2.57,1.39c0.59,1.18 3.16,-0.4 3.16,-0.4c0,0 5.92,-8.09 7.29,-9.86c1.39,-1.77 3.16,-1.77 3.16,-1.77c0,0 -0.78,2.36 1.18,5.52c1.98,3.16 5.52,0.78 7.69,-0.59c2.17,-1.39 9.08,-10.05 10.66,-12.22c1.58,-2.17 3.75,-2.57 3.75,-2.57c0,0 -1.18,6.91 -0.78,8.68c0.4,1.77 3.35,2.17 6.91,-1.18c3.54,-3.35 10.99,-14.3 10.99,-14.3c0,0 -1.91,5.42 -1.32,9.56c0.59,4.15 4.13,2.95 5.65,2.47c1.24,-0.81 2.63,-1.56 3.78,-2.17l-40.25,52.78l-54.96,-24.06c1.77,-5.26 7.87,-23.44 8.09,-24.11c6.05,-1.9 11.92,-3.75 11.92,-3.75c0.57,-1.4 1.23,-3.41 2.54,-5.76c1.31,-2.35 -1.83,-1.83 -1.83,-1.83c0,0 -5.34,3.94 -7.69,4.72c-3.25,1.68 -1.98,-1.85 -1.98,-1.85c0,0 4.71,-9.67 6.27,-13.59c1.56,-3.92 6.01,-3.92 9.67,-5.49c3.65,-1.56 28.49,-9.41 32.67,-10.98c4.18,-1.56 3.4,-7.85 3.4,-7.85c0,0 -4.45,2.35 -7.85,3.4c-3.4,1.05 -26.4,9.94 -29.02,11.25c-2.62,1.31 -1.31,-1.05 -1.31,-2.87s-1.31,-1.05 -1.31,-1.05c0,0 -3.14,1.56 -5.23,2.09c-2.09,0.53 -3.4,4.18 -3.4,4.18c0,0 -20.66,9.41 -25.1,14.65c-4.45,5.23 2.62,2.87 2.62,2.87c0,0 19.86,-11.76 18.3,-8.89c-1.56,2.87 -8.36,18.83 -8.36,18.83c0,0 -6.54,4.45 -8.89,6.27c-2.35,1.83 -1.31,5.49 -1.31,5.49c0,0 9.41,-7.58 8.36,-5.23c-0.88,1.96 -3.92,13.72 -4.91,17.6l-78.62,-34.43l47.97,-12.84l-21,-83.11l0,0l0,-0.02l-0.01,-0.01zm99.3,94.56s5.28,-6.29 6.03,-8.3c0.75,-2.01 4.02,-2.27 3.78,0c-0.26,2.27 -5.54,6.8 -5.54,6.8c0,0 -2.52,3.02 -3.78,3.02s-0.51,-1.52 -0.51,-1.52l0,0l0.02,0zm36.62,-10.47s-1.66,0.24 -1.42,-2.6c0.24,-2.84 0.94,-2.36 2.36,-3.56c1.42,-1.18 2.6,-2.84 2.6,-0.48s-0.24,3.56 -1.42,4.98c-1.18,1.42 -2.14,1.66 -2.14,1.66l0,0l0.02,0z" id="svg_1"/>
   <path class="cls-2" d="m28.99,141.3l28.93,-7.5c5.25,-1.36 9.67,-2.01 13.24,-1.93c3.77,-0.06 6.89,0.51 9.4,1.71c2.5,1.2 4.39,3.05 5.65,5.55c0.53,1.04 0.94,2.23 1.24,3.59c2.01,10 -5.15,17.12 -21.47,21.36l-10.15,2.63l3.27,13.83l-19.78,5.14l-10.31,-44.37l0,0l-0.02,-0.02l0,0.01zm115.38,-28.57l0.18,0c0.64,-0.45 1.31,-0.88 1.99,-1.29c3.64,-2.19 8.01,-3.94 13.08,-5.25c2.74,-0.72 5.15,-1.2 7.23,-1.45c2.09,-0.26 4.36,-0.32 6.83,-0.18c4.28,0.19 7.99,1.18 11.15,2.95c3.16,1.77 5.55,4.24 7.16,7.43l0.11,0.22l-10.69,2.78l0,5.03s12.51,-3.24 12.51,-3.24l5.62,24.51l-12.57,3.25l-1.87,-4.08c-1.05,1.4 -2.28,2.68 -3.69,3.85l0,0.08l-0.1,0c-3.33,2.73 -7.67,4.79 -13.02,6.17c-7.71,1.99 -14.5,2.04 -20.36,0.13c-5.86,-1.91 -10.02,-5.3 -12.46,-10.15l-1.23,-2.62l-0.54,-2.41c-1.61,-6.97 -0.27,-13.39 4.04,-19.26c1.75,-2.39 3.96,-4.52 6.62,-6.38l0,-0.11l0,0l0,0.02l0.01,0zm-93.16,33.78l2.14,9.89l8.55,-2.22c2.46,-0.64 4.31,-1.71 5.54,-3.22c1.23,-1.52 1.44,-3.08 0.62,-4.69c-1.23,-2.43 -4.88,-2.84 -10.98,-1.26l-5.87,1.52l0,0l0,-0.02zm41.64,-21.76l20.2,-5.23l31.94,38.77l-19.7,5.11l-3.8,-5.28l-19.78,5.14l-0.81,6.48l-19.27,4.99l11.23,-49.95l0,0l0,-0.02l-0.01,-0.01zm10.55,28.26l12.49,-3.24l-9.92,-14.26l-2.55,17.5l0,0l-0.02,0zm120.01,-63.35c8.89,-2.3 16.32,-2.41 22.3,-0.3c2.84,1.01 5.42,2.43 7.74,4.26c1.08,0.89 2.04,1.87 2.9,2.94c0.85,1.07 1.63,2.28 2.33,3.67l1.1,2.19l0.56,1.88c1.12,4.1 0.91,8.31 -0.61,12.62c-1.53,4.31 -4.5,8.22 -8.93,11.71c-4.44,3.49 -9.97,6.11 -16.62,7.83c-9,2.33 -16.51,2.43 -22.56,0.27c-6.05,-2.15 -10.29,-5.65 -12.73,-10.5l-0.56,-1.68l-0.7,-1.96l-0.59,-1.74c-0.86,-4.34 -0.56,-8.46 0.89,-12.33c1.45,-3.88 4.39,-7.56 8.81,-11.02c4.42,-3.48 9.97,-6.08 16.67,-7.82l0,0l0,-0.02zm2.35,10.88c-8.6,2.23 -11.09,8.73 -7.43,19.48c2.7,5.34 7.15,7.21 13.35,5.62c4.91,-1.28 7.9,-3.89 8.95,-7.83c1.04,-3.94 0.61,-7.82 -1.31,-11.63c-1.26,-2.5 -3.02,-4.28 -5.28,-5.31c-2.27,-1.04 -5.01,-1.15 -8.26,-0.3l0,0l-0.02,-0.02l0,-0.01z" id="svg_2"/>
   <path class="cls-4" d="m29.66,141.3l28.93,-7.5c5.25,-1.36 9.67,-2.01 13.24,-1.93c3.77,-0.06 6.89,0.51 9.4,1.71c2.5,1.2 4.39,3.05 5.63,5.55c0.53,1.04 0.94,2.23 1.24,3.59c2.01,10 -5.15,17.12 -21.47,21.36l-10.15,2.63l3.27,13.83l-19.78,5.14l-10.31,-44.37l0,0l0,-0.02l0,0.01zm22.24,5.2l2.14,9.89l8.55,-2.22c2.46,-0.64 4.31,-1.71 5.54,-3.22c1.23,-1.52 1.44,-3.08 0.62,-4.69c-1.23,-2.43 -4.88,-2.84 -10.98,-1.26l-5.87,1.52l0,0l0,-0.02zm41.64,-21.76l20.2,-5.23l31.94,38.77l-19.7,5.11l-3.8,-5.28l-19.78,5.14l-0.81,6.48l-19.27,4.99l11.23,-49.95l0,0l0,-0.02l-0.01,-0.01zm10.55,28.26l12.49,-3.24l-9.92,-14.26l-2.55,17.5l0,0l-0.02,0zm65.73,-16.66l-2.27,-9.59l27.07,-7.02l5.62,24.51l-12.57,3.25l-1.87,-4.08c-3.54,4.75 -9.14,8.12 -16.8,10.1c-7.71,1.99 -14.5,2.04 -20.36,0.13c-5.86,-1.91 -10.02,-5.3 -12.46,-10.15l-1.23,-2.62l-0.54,-2.41c-1.61,-6.97 -0.27,-13.39 4.04,-19.26c2.22,-3.02 5.14,-5.6 8.77,-7.79c3.64,-2.19 8.01,-3.94 13.08,-5.25c2.74,-0.72 5.15,-1.2 7.23,-1.45c2.09,-0.26 4.36,-0.32 6.83,-0.18c4.28,0.19 7.99,1.18 11.15,2.95c3.16,1.77 5.55,4.24 7.16,7.43l0.11,0.22l-18.78,4.87c-2.38,-3.33 -6.22,-4.32 -11.54,-2.95c-8.71,2.27 -11.1,8.87 -7.18,19.8c2.58,5.12 7.31,6.78 14.18,4.99c2.12,-0.56 4.12,-1.58 5.98,-3.08c1.87,-1.5 2.86,-3.08 2.98,-4.72l-8.63,2.23l0,0l0,0.05l0.03,0.02zm54.29,-46.7c8.89,-2.3 16.32,-2.41 22.3,-0.3c2.84,1.01 5.42,2.43 7.74,4.26c1.08,0.89 2.04,1.87 2.9,2.94c0.85,1.07 1.63,2.28 2.33,3.67l1.1,2.19l0.56,1.88c1.12,4.1 0.91,8.31 -0.61,12.62c-1.53,4.31 -4.5,8.22 -8.93,11.71c-4.44,3.49 -9.97,6.11 -16.62,7.83c-9,2.33 -16.51,2.43 -22.56,0.27c-6.05,-2.15 -10.29,-5.65 -12.73,-10.5l-0.56,-1.68l-0.7,-1.96l-0.59,-1.74c-0.86,-4.34 -0.56,-8.46 0.89,-12.33c1.45,-3.88 4.39,-7.56 8.81,-11.02c4.42,-3.48 9.97,-6.08 16.67,-7.82l0,0l0,-0.02zm2.35,10.88c-8.6,2.23 -11.09,8.73 -7.43,19.48c2.7,5.34 7.15,7.21 13.35,5.62c4.91,-1.28 7.9,-3.89 8.95,-7.83c1.04,-3.94 0.61,-7.82 -1.31,-11.63c-1.26,-2.5 -3.02,-4.28 -5.28,-5.31c-2.27,-1.04 -5.01,-1.15 -8.26,-0.3l0,0l-0.02,-0.02l0,-0.01z" id="svg_3"/>
   <circle class="cls-3" cx="148.5" cy="151.45" id="svg_4" r="143.35"/>
  </g>
 </g>
</svg>